<svg xmlns="http://www.w3.org/2000/svg" viewBox="0 0 64 64" width="64" height="64">
  <rect width="64" height="64" rx="14" fill="#0f7b8a"/>
  <!-- 朝日 -->
  <circle cx="49" cy="13" r="5.5" fill="#f7c948"/>
  <!-- 天守(ロゴH13の簡略形) -->
  <g fill="#ffffff" transform="translate(-16.6 -14) scale(0.19)">
    <path d="M206 138 Q 234 133 256 98 Q 278 133 306 138 Z"/>
    <rect x="236" y="138" width="40" height="18"/>
    <path d="M190 180 Q 224 175 256 152 Q 288 175 322 180 Z"/>
    <rect x="228" y="180" width="56" height="20"/>
    <path d="M174 224 Q 214 219 256 194 Q 298 219 338 224 Z"/>
    <path d="M230 232 L 282 232 Q 288 254 312 270 L 200 270 Q 224 254 230 232 Z"/>
  </g>
  <!-- 波 -->
  <path d="M13 51 c 8 -5 15 -5 23 0 s 15 5 23 0" fill="none" stroke="#9fe0e8" stroke-width="4" stroke-linecap="round"/>
</svg>
