<svg xmlns="http://www.w3.org/2000/svg" viewBox="0 0 512 512" role="img" aria-labelledby="title desc">
  <title id="title">シビックテック唐津 ロゴ案A</title>
  <desc id="desc">唐の文字、波、データノードを組み合わせたロゴ</desc>
  <defs>
    <linearGradient id="bg" x1="104" y1="64" x2="408" y2="448" gradientUnits="userSpaceOnUse">
      <stop offset="0" stop-color="#0f8c9d"/>
      <stop offset="1" stop-color="#0a5b66"/>
    </linearGradient>
    <filter id="shadow" x="-20%" y="-20%" width="140%" height="140%">
      <feDropShadow dx="0" dy="12" stdDeviation="16" flood-color="#073b42" flood-opacity=".22"/>
    </filter>
  </defs>

  <rect x="56" y="56" width="400" height="400" rx="92" fill="url(#bg)" filter="url(#shadow)"/>

  <g fill="none" stroke-linecap="round" stroke-linejoin="round">
    <path d="M114 352c48-35 93-35 142 0s94 35 142 0" stroke="#9fe0e8" stroke-width="22"/>
    <path d="M114 402c48-35 93-35 142 0s94 35 142 0" stroke="#9fe0e8" stroke-width="14" opacity=".62"/>
  </g>

  <g fill="none" stroke="#dff8fb" stroke-width="12" stroke-linecap="round" stroke-linejoin="round" opacity=".92">
    <path d="M151 160h210"/>
    <path d="M256 122v185"/>
    <path d="M190 220h132"/>
    <path d="M176 278h160"/>
    <path d="M176 278c21 34 49 52 80 52s59-18 80-52"/>
  </g>

  <g stroke="#ffffff" stroke-width="10" stroke-linecap="round" stroke-linejoin="round">
    <path d="M147 124l53 40" opacity=".78"/>
    <path d="M365 126l-52 39" opacity=".78"/>
    <path d="M256 96v42" opacity=".78"/>
    <circle cx="147" cy="124" r="16" fill="#f7c948"/>
    <circle cx="365" cy="126" r="16" fill="#f97316"/>
    <circle cx="256" cy="96" r="16" fill="#ffffff"/>
  </g>
</svg>
